<svg width="404.618" height="404.618" xmlns="http://www.w3.org/2000/svg">

 <g>
  <title>background</title>
  <rect fill="#bf0000" id="canvas_background" height="406.618" width="406.618" y="-1" x="-1"/>
 </g>
 <g>
  <title>Layer 1</title>
  <g id="svg_1">
   <path fill="#000000" id="svg_2" d="m84.62,120.674l-48.36,0c-2.671,0 -5.16,1.436 -6.495,3.75l-24.18,41.879c-1.336,2.316 -1.336,5.188 0,7.5l24.18,41.885c1.335,2.311 3.824,3.746 6.495,3.746l48.36,0c2.671,0 5.16,-1.436 6.496,-3.746l24.18,-41.885c1.335,-2.313 1.335,-5.184 0,-7.5l-24.18,-41.879c-1.336,-2.314 -3.826,-3.75 -6.496,-3.75z"/>
   <path fill="#000000" id="svg_3" d="m180.034,178.586l-48.361,0c-2.67,0 -5.16,1.439 -6.495,3.75l-24.181,41.885c-1.334,2.311 -1.334,5.186 0,7.498l24.181,41.883c1.335,2.313 3.825,3.75 6.495,3.75l48.361,0c2.67,0 5.158,-1.438 6.494,-3.75l24.179,-41.883c1.335,-2.313 1.335,-5.188 0,-7.498l-24.179,-41.885c-1.336,-2.31 -3.824,-3.75 -6.494,-3.75z"/>
   <path fill="#000000" id="svg_4" d="m186.528,293.168c-1.336,-2.315 -3.824,-3.75 -6.494,-3.75l-48.361,0c-2.67,0 -5.16,1.435 -6.495,3.75l-24.181,41.879c-1.334,2.314 -1.334,5.188 0,7.5l24.181,41.881c1.335,2.313 3.825,3.75 6.495,3.75l48.361,0c2.67,0 5.158,-1.438 6.494,-3.75l24.179,-41.881c1.335,-2.313 1.335,-5.186 0,-7.5l-24.179,-41.879z"/>
   <path fill="#000000" id="svg_5" d="m110.712,280.049l-24.18,-41.879c-1.335,-2.314 -3.824,-3.75 -6.494,-3.75l-48.362,0c-2.671,0 -5.16,1.436 -6.496,3.75l-24.18,41.879c-1.334,2.315 -1.334,5.188 0,7.5l24.18,41.881c1.336,2.313 3.825,3.75 6.496,3.75l48.361,0c2.67,0 5.159,-1.438 6.494,-3.75l24.181,-41.881c1.335,-2.312 1.335,-5.185 0,-7.5z"/>
   <path fill="#000000" id="svg_6" d="m180.034,64.428l-48.361,0c-2.67,0 -5.16,1.436 -6.495,3.75l-24.181,41.879c-1.334,2.314 -1.334,5.185 0,7.502l24.181,41.879c1.335,2.314 3.825,3.75 6.495,3.75l48.361,0c2.67,0 5.158,-1.436 6.494,-3.75l24.179,-41.879c1.335,-2.316 1.335,-5.188 0,-7.502l-24.179,-41.879c-1.336,-2.314 -3.824,-3.75 -6.494,-3.75z"/>
   <path fill="#000000" id="svg_7" d="m229.167,221.899l48.36,0c2.67,0 5.16,-1.434 6.495,-3.75l24.181,-41.879c1.334,-2.314 1.334,-5.188 0,-7.5l-24.181,-41.885c-1.335,-2.309 -3.825,-3.748 -6.495,-3.748l-48.36,0c-2.671,0 -5.159,1.44 -6.495,3.748l-24.178,41.885c-1.336,2.313 -1.336,5.186 0,7.5l24.178,41.879c1.336,2.316 3.825,3.75 6.495,3.75z"/>
   <path fill="#000000" id="svg_8" d="m379.436,184.803c-1.336,-2.314 -3.824,-3.75 -6.495,-3.75l-48.36,0c-2.671,0 -5.16,1.436 -6.496,3.75l-24.18,41.879c-1.334,2.314 -1.334,5.186 0,7.5l24.18,41.881c1.336,2.313 3.825,3.75 6.496,3.75l48.36,0c2.671,0 5.159,-1.438 6.495,-3.75l24.18,-41.881c1.336,-2.314 1.336,-5.186 0,-7.5l-24.18,-41.879z"/>
   <path fill="#000000" id="svg_9" d="m379.436,297.295c-1.336,-2.309 -3.824,-3.75 -6.495,-3.75l-48.36,0c-2.671,0 -5.16,1.441 -6.496,3.75l-24.18,41.885c-1.334,2.309 -1.334,5.186 0,7.5l24.18,41.879c1.336,2.315 3.825,3.75 6.496,3.75l48.36,0c2.671,0 5.159,-1.435 6.495,-3.75l24.18,-41.879c1.336,-2.314 1.336,-5.191 0,-7.5l-24.18,-41.885z"/>
   <path fill="#000000" id="svg_10" d="m308.204,280.049l-24.181,-41.879c-1.335,-2.314 -3.825,-3.75 -6.495,-3.75l-48.36,0c-2.671,0 -5.159,1.436 -6.495,3.75l-24.178,41.879c-1.336,2.315 -1.336,5.188 0,7.5l24.178,41.881c1.336,2.313 3.824,3.75 6.495,3.75l48.36,0c2.67,0 5.16,-1.438 6.495,-3.75l24.181,-41.881c1.334,-2.312 1.334,-5.185 0,-7.5z"/>
   <path fill="#000000" id="svg_11" d="m308.204,57.94l-24.181,-41.881c-1.335,-2.313 -3.825,-3.75 -6.495,-3.75l-48.36,0c-2.671,0 -5.159,1.438 -6.495,3.75l-24.178,41.881c-1.336,2.313 -1.336,5.189 0,7.5l24.178,41.883c1.336,2.311 3.824,3.75 6.495,3.75l48.36,0c2.67,0 5.16,-1.439 6.495,-3.75l24.181,-41.883c1.334,-2.311 1.334,-5.188 0,-7.5z"/>
   <path fill="#000000" id="svg_12" d="m379.436,70.639c-1.336,-2.313 -3.824,-3.75 -6.495,-3.75l-48.36,0c-2.671,0 -5.16,1.438 -6.496,3.75l-24.18,41.885c-1.334,2.309 -1.334,5.186 0,7.496l24.18,41.883c1.336,2.314 3.825,3.752 6.496,3.752l48.36,0c2.671,0 5.159,-1.438 6.495,-3.752l24.18,-41.883c1.336,-2.311 1.336,-5.188 0,-7.496l-24.18,-41.885z"/>
  </g>
  <g id="svg_13"/>
  <g id="svg_14"/>
  <g id="svg_15"/>
  <g id="svg_16"/>
  <g id="svg_17"/>
  <g id="svg_18"/>
  <g id="svg_19"/>
  <g id="svg_20"/>
  <g id="svg_21"/>
  <g id="svg_22"/>
  <g id="svg_23"/>
  <g id="svg_24"/>
  <g id="svg_25"/>
  <g id="svg_26"/>
  <g id="svg_27"/>
 </g>
</svg>