<?xml version='1.0' encoding='iso-8859-1'?>
<!DOCTYPE svg PUBLIC '-//W3C//DTD SVG 1.1//EN' 'http://www.w3.org/Graphics/SVG/1.1/DTD/svg11.dtd'>
<svg version="1.1" xmlns="http://www.w3.org/2000/svg" viewBox="0 0 460 460" xmlns:xlink="http://www.w3.org/1999/xlink" enable-background="new 0 0 460 460">
  <path d="m448.369,96.167l-84.53-84.53c-7.501-7.5-17.472-11.631-28.078-11.631-10.607,0-20.578,4.131-28.077,11.631l-5.377,5.375c-8.375,8.376-12.21,19.591-11.524,30.575-0.834-0.052-1.671-0.087-2.515-0.087-10.607,0-20.578,4.131-28.077,11.631l-5.377,5.375c-8.375,8.376-12.21,19.591-11.524,30.575-0.834-0.052-1.671-0.087-2.515-0.087-10.607,0-20.579,4.131-28.078,11.631l-5.376,5.375c-15.482,15.483-15.482,40.675 0,56.158l21.386,21.386-220.059,220.057c-5.577,5.577-8.648,12.992-8.648,20.879 0,7.888 3.071,15.303 8.649,20.879 5.756,5.756 13.317,8.634 20.879,8.634s15.123-2.878 20.879-8.634l220.059-220.059 21.386,21.386c2.475,2.475 5.2,4.55 8.092,6.233l.001,50.614c0,16.389 13.334,29.723 29.723,29.723 16.389,0 29.723-13.334 29.723-29.723v-20.12c0-5.442 4.427-9.868 9.868-9.868s9.868,4.427 9.868,9.868v69.609c0,16.389 13.334,29.723 29.723,29.723s29.723-13.334 29.723-29.723v-197.509c1.544-1.146 9.798-9.189 9.798-9.189 7.5-7.501 11.631-17.472 11.631-28.078s-4.133-20.578-11.633-28.079zm-185.331-3.584c0-5.303 2.066-10.289 5.815-14.039l5.377-5.375c3.75-3.75 8.736-5.816 14.039-5.816 5.303,0 10.289,2.066 14.039,5.816l84.53,84.53c3.75,3.75 5.816,8.736 5.816,14.039s-2.066,10.289-5.816,14.04l-5.375,5.375c-3.75,3.75-8.736,5.816-14.039,5.816-5.304,0-10.29-2.066-14.04-5.816l-84.53-84.53c-3.75-3.75-5.816-8.736-5.816-14.04zm-226.671,344.736c-3.771,3.771-9.909,3.771-13.68,5.68434e-14-1.827-1.826-2.833-4.256-2.833-6.84 0-2.584 1.006-5.013 2.833-6.84l220.059-220.059 13.679,13.679-220.058,220.06zm184.994-283.203c-3.75-3.75-5.816-8.736-5.816-14.04 0-5.303 2.065-10.289 5.815-14.039l5.376-5.375c3.75-3.75 8.735-5.816 14.039-5.816 5.303,0 10.289,2.066 14.039,5.816l84.53,84.53c3.75,3.75 5.816,8.736 5.816,14.039 0,5.304-2.065,10.289-5.816,14.04l-5.375,5.375c-3.75,3.75-8.736,5.816-14.039,5.816-5.304,0-10.29-2.066-14.04-5.816l-84.529-84.53zm197.356,204.905c0,5.442-4.427,9.868-9.868,9.868s-9.868-4.427-9.868-9.868v-69.609c0-16.389-13.334-29.723-29.723-29.723s-29.723,13.334-29.723,29.723v20.12c0,5.442-4.427,9.868-9.868,9.868-5.442,0-9.868-4.427-9.868-9.868l-.001-45.239c0.044,0 0.088,0.003 0.132,0.003 10.169,0 20.338-3.87 28.079-11.612l5.374-5.375c7.501-7.5 11.632-17.472 11.632-28.078 0-0.843-0.035-1.681-0.087-2.515 0.831,0.052 1.663,0.087 2.496,0.087 10.169,0 20.338-3.87 28.079-11.612l5.375-5.375c7.5-7.501 11.631-17.472 11.631-28.078 0-0.843-0.036-1.681-0.087-2.515 0.831,0.052 1.663,0.087 2.496,0.087 1.269,0 2.537-0.06 3.801-0.181v189.892zm15.611-220.735l-5.375,5.375c-3.75,3.75-8.736,5.816-14.039,5.816-5.304,0-10.29-2.066-14.04-5.816l-84.53-84.53c-3.75-3.75-5.816-8.736-5.816-14.04 0-5.303 2.066-10.289 5.815-14.039l5.377-5.375c3.75-3.75 8.736-5.816 14.039-5.816s10.289,2.066 14.039,5.816l84.53,84.53c3.75,3.75 5.816,8.736 5.816,14.039s-2.066,10.289-5.816,14.04z"/>
</svg>
